<svg width="43" height="43" viewBox="0 0 43 43" fill="none" xmlns="http://www.w3.org/2000/svg">
<path d="M21.5 9.5V1.5H13.5M1.5 21.5H5.5M15.5 19.5V23.5M27.5 19.5V23.5M37.5 21.5H41.5M13.5 33.5L5.5 41.5V13.5C5.5 12.4391 5.92143 11.4217 6.67157 10.6716C7.42172 9.92143 8.43913 9.5 9.5 9.5H33.5C34.5609 9.5 35.5783 9.92143 36.3284 10.6716C37.0786 11.4217 37.5 12.4391 37.5 13.5V29.5C37.5 30.5609 37.0786 31.5783 36.3284 32.3284C35.5783 33.0786 34.5609 33.5 33.5 33.5H13.5Z" stroke="#F3FAF9" stroke-width="2" stroke-linecap="round" stroke-linejoin="round"/>
</svg>
