<svg width="138" height="120" viewBox="0 0 138 120" fill="none" xmlns="http://www.w3.org/2000/svg">
<path d="M0.25 119.25L68.9999 0.5L137.75 119.25H0.25ZM21.8125 106.75H116.187L68.9999 25.5L21.8125 106.75ZM68.9999 100.5C70.7707 100.5 72.2562 99.8999 73.4562 98.6999C74.6562 97.4999 75.2541 96.0166 75.2499 94.2499C75.2457 92.4833 74.6457 90.9999 73.4499 89.7999C72.2541 88.5999 70.7707 87.9999 68.9999 87.9999C67.2291 87.9999 65.7458 88.5999 64.5499 89.7999C63.3541 90.9999 62.7541 92.4833 62.7499 94.2499C62.7458 96.0166 63.3458 97.502 64.5499 98.7062C65.7541 99.9104 67.2374 100.508 68.9999 100.5ZM62.7499 81.75H75.2499V50.5H62.7499V81.75Z" fill="#D42F26"/>
</svg>
