<svg width="19" height="20" viewBox="0 0 19 20" fill="none" xmlns="http://www.w3.org/2000/svg">
<path d="M9.431 0.557688C9.55484 0.402729 9.70818 0.273872 9.88216 0.178575C10.0561 0.0832787 10.2473 0.0234357 10.4445 0.0025102C10.6418 -0.0184153 10.8412 -7.78446e-06 11.0313 0.0566674C11.2214 0.113343 11.3984 0.20716 11.552 0.332688L16.445 4.32869C16.7141 4.54839 16.8986 4.85469 16.967 5.19528C17.0354 5.53587 16.9834 5.88963 16.82 6.19619C16.3922 6.06544 15.9473 5.99922 15.5 5.99969H15.05L15.497 5.48969L12.92 3.38519L10.7945 6.00119H8.861L11.7575 2.43719L10.6025 1.49369L7.0055 5.99969H5.0855L9.431 0.557688ZM13.25 13.4997C13.0511 13.4997 12.8603 13.5787 12.7197 13.7194C12.579 13.86 12.5 14.0508 12.5 14.2497C12.5 14.4486 12.579 14.6394 12.7197 14.78C12.8603 14.9207 13.0511 14.9997 13.25 14.9997H14.75C14.9489 14.9997 15.1397 14.9207 15.2803 14.78C15.421 14.6394 15.5 14.4486 15.5 14.2497C15.5 14.0508 15.421 13.86 15.2803 13.7194C15.1397 13.5787 14.9489 13.4997 14.75 13.4997H13.25ZM2 6.74969C2 6.55078 2.07902 6.36001 2.21967 6.21936C2.36032 6.07871 2.55109 5.99969 2.75 5.99969H3.587L4.7795 4.49969H2.75C2.15326 4.49969 1.58097 4.73674 1.15901 5.1587C0.737053 5.58065 0.5 6.15295 0.5 6.74969V15.7497C0.5 16.7442 0.895088 17.6981 1.59835 18.4013C2.30161 19.1046 3.25544 19.4997 4.25 19.4997H15.5C16.2956 19.4997 17.0587 19.1836 17.6213 18.621C18.1839 18.0584 18.5 17.2953 18.5 16.4997V10.4997C18.5 9.70404 18.1839 8.94098 17.6213 8.37837C17.0587 7.81576 16.2956 7.49969 15.5 7.49969H2.75C2.55109 7.49969 2.36032 7.42067 2.21967 7.28002C2.07902 7.13937 2 6.9486 2 6.74969ZM2 15.7497V8.87219C2.236 8.95619 2.486 8.99869 2.75 8.99969H15.5C15.8978 8.99969 16.2794 9.15772 16.5607 9.43903C16.842 9.72033 17 10.1019 17 10.4997V16.4997C17 16.8975 16.842 17.279 16.5607 17.5603C16.2794 17.8417 15.8978 17.9997 15.5 17.9997H4.25C3.65326 17.9997 3.08097 17.7626 2.65901 17.3407C2.23705 16.9187 2 16.3464 2 15.7497Z" fill="white"/>
</svg>
