<svg width="70" height="70" viewBox="0 0 70 70" fill="none" xmlns="http://www.w3.org/2000/svg">
<path fill-rule="evenodd" clip-rule="evenodd" d="M48.4615 29.6153H40.2365L45.5511 17.2145C45.7266 16.805 45.7978 16.3584 45.7582 15.9146C45.7187 15.4708 45.5696 15.0438 45.3244 14.6719C45.0791 14.2999 44.7454 13.9946 44.3532 13.7833C43.9609 13.5721 43.5224 13.4615 43.0769 13.4614H29.6153C29.088 13.461 28.5722 13.6153 28.1319 13.9054C27.6916 14.1954 27.3461 14.6083 27.1384 15.093L19.0615 33.9391C18.8858 34.3488 18.8147 34.7957 18.8544 35.2397C18.8941 35.6837 19.0434 36.1108 19.2889 36.4829C19.5345 36.8549 19.8685 37.1602 20.2611 37.3712C20.6537 37.5823 21.0926 37.6926 21.5384 37.6922H26.2068L19.0399 55.5341C17.963 58.213 21.288 60.4772 23.3853 58.4956L36.9115 45.7287L50.2115 34.3537C52.1122 32.7276 50.9626 29.6153 48.4615 29.6153ZM33.6807 31.2468C33.5052 31.6561 33.4341 32.1025 33.4735 32.546C33.5129 32.9896 33.6618 33.4164 33.9067 33.7883C34.1516 34.1602 34.4849 34.4656 34.8768 34.677C35.2687 34.8885 35.7069 34.9994 36.1522 34.9999H41.1707L33.3092 41.7253L28.603 46.1676L32.6872 36.0041C32.8514 35.5957 32.913 35.1533 32.8665 34.7155C32.82 34.2778 32.6669 33.8582 32.4206 33.4934C32.1743 33.1285 31.8423 32.8297 31.4536 32.623C31.065 32.4162 30.6316 32.3079 30.1915 32.3076H25.6226L31.3895 18.846H38.9926L33.6807 31.2468Z" fill="#F3FAF9"/>
<path fill-rule="evenodd" clip-rule="evenodd" d="M35 64.6154C51.3558 64.6154 64.6154 51.3558 64.6154 35C64.6154 18.6442 51.3558 5.38462 35 5.38462C18.6442 5.38462 5.38462 18.6442 5.38462 35C5.38462 51.3558 18.6442 64.6154 35 64.6154ZM35 70C54.3308 70 70 54.3308 70 35C70 15.6692 54.3308 0 35 0C15.6692 0 0 15.6692 0 35C0 54.3308 15.6692 70 35 70Z" fill="#F3FAF9"/>
</svg>
