<svg width="108" height="27" viewBox="0 0 108 27" fill="none" xmlns="http://www.w3.org/2000/svg">
<path d="M7.41016 20.7871C6.08854 20.7871 4.92188 20.5547 3.91016 20.0898C2.89844 19.625 2.09635 18.9186 1.50391 17.9707C0.920573 17.0228 0.601562 15.8242 0.546875 14.375L0.574219 14.293H4.07422C4.13802 15.6055 4.42969 16.5306 4.94922 17.0684C5.47786 17.6061 6.19336 17.875 7.0957 17.875C7.67904 17.875 8.1849 17.7474 8.61328 17.4922C9.05078 17.237 9.38802 16.8678 9.625 16.3848C9.87109 15.8926 9.99414 15.2956 9.99414 14.5938V3.25977L7.31445 2.86328V0.59375H15.8457V2.84961L13.6992 3.25977V14.5938C13.6992 15.8516 13.4531 16.9453 12.9609 17.875C12.4779 18.8047 11.7715 19.5247 10.8418 20.0352C9.91211 20.5365 8.76823 20.7871 7.41016 20.7871ZM23.5983 20.7871C22.0215 20.7871 20.7865 20.2904 19.8932 19.2969C19.0091 18.2943 18.5671 16.7402 18.5671 14.6348V8.37305L16.9264 7.96289V5.70703H18.5671H22.2858V14.6621C22.2858 15.8288 22.4772 16.6582 22.86 17.1504C23.252 17.6335 23.849 17.875 24.651 17.875C25.3164 17.875 25.8952 17.7428 26.3874 17.4785C26.8796 17.2142 27.276 16.8359 27.5768 16.3438V8.37305L25.7721 7.96289V5.70703H27.5768H31.2956V17.8477L33.0592 18.2578V20.5H28.0143L27.7682 18.5586C27.3034 19.2786 26.7155 19.8301 26.0046 20.2129C25.3027 20.5957 24.5007 20.7871 23.5983 20.7871ZM40.9076 20.7871C39.8229 20.7871 38.8112 20.6868 37.8724 20.4863C36.9427 20.2767 36.0313 19.9714 35.138 19.5703L35.097 15.5234H37.722L38.2415 17.6562C38.597 17.8203 38.9707 17.9479 39.3626 18.0391C39.7546 18.1302 40.1966 18.1758 40.6888 18.1758C41.6276 18.1758 42.2884 18.0208 42.6712 17.7109C43.0632 17.3919 43.2591 16.9954 43.2591 16.5215C43.2591 16.0658 43.054 15.6738 42.6439 15.3457C42.2337 15.0085 41.4408 14.7168 40.265 14.4707C38.5059 14.097 37.2116 13.5365 36.3822 12.7891C35.5527 12.0326 35.138 11.0664 35.138 9.89062C35.138 9.07031 35.3477 8.32747 35.7669 7.66211C36.1953 6.99674 36.8333 6.46354 37.681 6.0625C38.5287 5.65234 39.5905 5.44727 40.8665 5.44727C41.9876 5.44727 42.9948 5.5612 43.888 5.78906C44.7904 6.01693 45.5514 6.30859 46.1712 6.66406L46.2396 10.5742H43.6283L43.2044 8.63281C42.9401 8.44141 42.6302 8.29557 42.2747 8.19531C41.9193 8.08594 41.5182 8.03125 41.0716 8.03125C40.3425 8.03125 39.7728 8.1862 39.3626 8.49609C38.9616 8.80599 38.7611 9.19792 38.7611 9.67188C38.7611 9.94531 38.8294 10.196 38.9662 10.4238C39.1029 10.6517 39.3672 10.8659 39.7591 11.0664C40.1602 11.2578 40.7435 11.4401 41.5091 11.6133C43.3867 12.0417 44.7402 12.6113 45.5697 13.3223C46.4082 14.0332 46.8275 14.9993 46.8275 16.2207C46.8275 17.5697 46.3353 18.668 45.3509 19.5156C44.3757 20.3633 42.8945 20.7871 40.9076 20.7871ZM54.457 20.7734C53.1445 20.7734 52.1237 20.4089 51.3945 19.6797C50.6745 18.9414 50.3145 17.7747 50.3145 16.1797V8.3457H48.2227V5.70703H50.3145V2.09766H54.0195V5.70703H56.8496V8.3457H54.0195V16.1797C54.0195 16.7812 54.1472 17.2142 54.4024 17.4785C54.6576 17.7428 54.9994 17.875 55.4277 17.875C55.6647 17.875 55.9245 17.8568 56.207 17.8203C56.4896 17.7839 56.7266 17.7474 56.918 17.7109L57.2735 20.3496C56.8633 20.4681 56.4076 20.5684 55.9063 20.6504C55.4141 20.7324 54.931 20.7734 54.457 20.7734Z" fill="#444444"/>
<path d="M58.9421 26.1875V23.9316L60.9108 23.5215V8.37305L58.7507 7.96289V5.70703H64.2878L64.4929 7.44336C64.9395 6.79622 65.4818 6.29948 66.1198 5.95312C66.7578 5.60677 67.5143 5.43359 68.3893 5.43359C69.5834 5.43359 70.6042 5.76172 71.4518 6.41797C72.3086 7.0651 72.9649 7.97656 73.4206 9.15234C73.8763 10.3281 74.1042 11.6953 74.1042 13.2539V13.541C74.1042 14.9902 73.8763 16.2617 73.4206 17.3555C72.9649 18.4401 72.3086 19.2832 71.4518 19.8848C70.6042 20.4863 69.5788 20.7871 68.3757 20.7871C67.5554 20.7871 66.8353 20.6413 66.2155 20.3496C65.5957 20.0579 65.0625 19.6296 64.6159 19.0645V23.5215L66.6393 23.9316V26.1875H58.9421ZM67.2546 17.9297C68.3301 17.9297 69.1185 17.5332 69.6198 16.7402C70.1211 15.9473 70.3718 14.8809 70.3718 13.541V13.2539C70.3718 12.2786 70.2578 11.4264 70.03 10.6973C69.8112 9.95898 69.4694 9.38477 69.0046 8.97461C68.5397 8.55534 67.9473 8.3457 67.2272 8.3457C66.6348 8.3457 66.1153 8.48242 65.6686 8.75586C65.2311 9.02018 64.8802 9.39388 64.6159 9.87695V16.5078C64.8802 16.9635 65.2311 17.3145 65.6686 17.5605C66.1153 17.8066 66.6439 17.9297 67.2546 17.9297ZM80.8998 20.7871C79.4141 20.7871 78.2429 20.3997 77.3861 19.625C76.5384 18.8411 76.1146 17.7702 76.1146 16.4121C76.1146 15.0176 76.6797 13.8874 77.8099 13.0215C78.9492 12.1465 80.5899 11.709 82.7318 11.709H84.8373V10.5469C84.8373 9.79948 84.614 9.19792 84.1673 8.74219C83.7298 8.28646 83.0827 8.05859 82.2259 8.05859C81.7611 8.05859 81.3418 8.11784 80.9681 8.23633C80.6035 8.3457 80.2754 8.50521 79.9837 8.71484L79.6693 10.6973H76.9623L76.9349 6.95117C77.6823 6.49544 78.5026 6.13086 79.3959 5.85742C80.2982 5.57487 81.3008 5.43359 82.4037 5.43359C84.3086 5.43359 85.808 5.88021 86.9017 6.77344C88.0046 7.65755 88.556 8.92904 88.556 10.5879V16.8906C88.556 17.0911 88.556 17.2871 88.556 17.4785C88.5651 17.6699 88.5834 17.8568 88.6107 18.0391L90.1283 18.2578V20.5H85.4115C85.3112 20.2174 85.2155 19.9303 85.1244 19.6387C85.0423 19.3379 84.9831 19.0371 84.9466 18.7363C84.4636 19.347 83.8848 19.8438 83.2103 20.2266C82.5449 20.6003 81.7748 20.7871 80.8998 20.7871ZM81.8158 17.9844C82.4447 17.9844 83.0326 17.8385 83.5795 17.5469C84.1354 17.2552 84.5547 16.8861 84.8373 16.4395V14.0332H82.7181C81.7611 14.0332 81.0365 14.2565 80.5443 14.7031C80.0612 15.1406 79.8197 15.6602 79.8197 16.2617C79.8197 16.8086 79.9929 17.2324 80.3392 17.5332C80.6856 17.834 81.1778 17.9844 81.8158 17.9844ZM95.0918 26.4746C94.7819 26.4746 94.4356 26.4427 94.0528 26.3789C93.6791 26.3242 93.3373 26.2559 93.0274 26.1738L93.4512 23.4121C93.6153 23.4395 93.8067 23.4622 94.0254 23.4805C94.2533 23.4987 94.4356 23.5078 94.5723 23.5078C95.1556 23.5078 95.6478 23.3438 96.0489 23.0156C96.4499 22.6875 96.7598 22.2227 96.9785 21.6211L97.375 20.5684L92.3711 8.22266L90.5938 7.96289V5.70703H98.1133V7.96289L96.295 8.23633L98.7422 14.9492L99.1114 16.002H99.1934L102.092 8.22266L100.287 7.96289V5.70703H107.342V7.96289L105.715 8.19531L100.027 22.7148C99.7539 23.4076 99.4076 24.0365 98.9883 24.6016C98.5782 25.1758 98.0541 25.6315 97.416 25.9688C96.7871 26.306 96.0124 26.4746 95.0918 26.4746Z" fill="#2C7075"/>
</svg>
