<svg width="160" height="160" viewBox="0 0 160 160" fill="none" xmlns="http://www.w3.org/2000/svg">
<path d="M84.2 13.3335C121.067 13.3335 150.933 43.3335 150.933 80.0002C150.933 116.667 121.067 146.667 84.2 146.667C60.8 146.667 40.3333 134.533 28.4 116.2L38.9333 107.867C48.3333 123.133 65.0667 133.333 84.2667 133.333C98.4116 133.333 111.977 127.714 121.979 117.713C131.981 107.711 137.6 94.145 137.6 80.0002C137.6 65.8553 131.981 52.2897 121.979 42.2878C111.977 32.2859 98.4116 26.6668 84.2667 26.6668C57.0667 26.6668 34.6667 47.0668 31.4 73.3335H49.8L24.8667 98.2002L0 73.3335H17.9333C21.2667 39.6668 49.6667 13.3335 84.2 13.3335ZM103.933 68.2668C107.267 68.3335 110 71.0002 110 74.4002V105.133C110 108.467 107.267 111.267 103.867 111.267H67C63.6 111.267 60.8667 108.467 60.8667 105.133V74.4002C60.8667 71.0002 63.6 68.3335 66.9333 68.2668V61.5335C66.9333 51.3335 75.2667 43.0668 85.4 43.0668C95.6 43.0668 103.933 51.3335 103.933 61.5335V68.2668ZM85.4 52.4002C80.4 52.4002 76.2667 56.4668 76.2667 61.5335V68.2668H94.6V61.5335C94.6 56.4668 90.4667 52.4002 85.4 52.4002Z" fill="#2C7075"/>
</svg>
