<svg width="186" height="174" viewBox="0 0 186 174" fill="none" xmlns="http://www.w3.org/2000/svg">
<path d="M1.81465 65.9114L180.192 64.7587L185.161 173.459L0.46167 171.922L1.81465 65.9114Z" fill="#2C7075"/>
<path d="M1.81396 65.9114L92.3687 0.232727L180.191 64.7587" fill="#2C7075"/>
<g opacity="0.3">
<path d="M1.81396 65.9114L92.3687 0.232727L180.191 64.7587" fill="black"/>
</g>
<path d="M0.461182 171.922C0.233456 171.742 14.5133 157.765 32.3563 140.703C50.1994 123.641 64.8274 109.977 65.0552 110.169C65.2829 110.361 51.0031 124.326 33.16 141.388C15.317 158.45 0.688909 172.114 0.461182 171.922Z" fill="#263238"/>
<path d="M185.161 173.459C184.933 173.639 171.028 159.951 154.109 142.877C137.191 125.803 123.648 111.814 123.875 111.658C124.103 111.502 138.008 125.166 154.927 142.24C171.845 159.314 185.388 173.279 185.161 173.459Z" fill="#263238"/>
<g opacity="0.5">
<path d="M180.191 64.7587L90.6139 128.9L1.81396 65.9114" fill="black"/>
</g>
<path d="M10.8026 71.8549L10.5347 25.3515L166.768 21.9175L168.47 72.8034L90.614 128.06L10.8026 71.8549Z" fill="#EBEBEB"/>
<path d="M92.7973 111.346C87.3164 111.359 81.8946 110.332 76.888 108.333C71.8813 106.334 67.4033 103.408 63.7482 99.7474C60.093 96.0866 57.3434 91.7741 55.68 87.093C54.0167 82.412 53.4773 77.4685 54.0972 72.5873C55.2572 63.4064 60.4385 55.0147 68.5013 49.258C76.5641 43.5014 86.848 40.8515 97.0906 41.8912C107.333 42.9309 116.695 47.5752 123.118 54.8022C129.54 62.0292 132.497 71.2471 131.337 80.4279C130.268 88.9235 125.749 96.7697 118.642 102.472C111.535 108.173 102.336 111.332 92.7973 111.346ZM92.6901 42.9058C85.4546 42.9128 78.3758 44.7954 72.3069 48.3268C66.2381 51.8582 61.4384 56.8877 58.4863 62.8088C55.5342 68.7299 54.5558 75.29 55.6691 81.6983C56.7823 88.1065 59.9397 94.0894 64.7606 98.9257C69.5814 103.762 75.86 107.245 82.8394 108.955C89.8188 110.666 97.2012 110.53 104.096 108.565C110.992 106.599 117.106 102.888 121.701 97.8789C126.297 92.8695 129.178 86.7756 129.997 80.3318C130.556 75.9415 130.145 71.4955 128.785 67.248C127.426 63.0005 125.146 59.0348 122.075 55.5778C119.005 52.1207 115.204 49.2402 110.891 47.1008C106.577 44.9615 101.835 43.6053 96.9366 43.1099C95.528 42.9464 94.1103 42.8542 92.6901 42.8338V42.9058Z" fill="#2C7075"/>
<path d="M66.3008 81.3405L72.7977 74.2083L87.9884 84.0421L112.677 57.9627L120.125 63.8342L88.3635 96.6375L66.3008 81.3405Z" fill="#2C7075"/>
</svg>
