<svg width="20" height="20" viewBox="0 0 20 20" fill="none" xmlns="http://www.w3.org/2000/svg">
<path fill-rule="evenodd" clip-rule="evenodd" d="M15.702 10.115C14.78 9.742 13.47 9.5 12 9.5V8.5C13.567 8.5 15.008 8.756 16.076 9.187C16.609 9.403 17.074 9.671 17.413 9.996C17.753 10.321 18 10.736 18 11.222C18 11.709 17.754 12.123 17.413 12.449C17.073 12.773 16.609 13.042 16.076 13.257C15.008 13.689 13.566 13.944 12 13.944C10.433 13.944 8.992 13.689 7.924 13.257C7.391 13.042 6.926 12.773 6.587 12.449C6.247 12.123 6 11.709 6 11.222H7C7 11.349 7.062 11.519 7.278 11.726C7.494 11.933 7.836 12.143 8.298 12.33C9.221 12.703 10.529 12.944 12 12.944C13.47 12.944 14.78 12.703 15.702 12.33C16.164 12.143 16.505 11.933 16.722 11.726C16.939 11.519 17 11.349 17 11.222C17 11.095 16.938 10.925 16.722 10.719C16.505 10.511 16.164 10.301 15.702 10.115Z" fill="#9D9A9A"/>
<path fill-rule="evenodd" clip-rule="evenodd" d="M6.5 11.167C6.63261 11.167 6.75979 11.2197 6.85355 11.3134C6.94732 11.4072 7 11.5344 7 11.667V14.777C7 14.905 7.062 15.075 7.278 15.281C7.495 15.489 7.836 15.699 8.298 15.886C9.221 16.258 10.529 16.5 12 16.5C13.47 16.5 14.78 16.258 15.702 15.886C16.164 15.699 16.505 15.489 16.722 15.281C16.938 15.075 17 14.905 17 14.778V11.667C17 11.5344 17.0527 11.4072 17.1464 11.3134C17.2402 11.2197 17.3674 11.167 17.5 11.167C17.6326 11.167 17.7598 11.2197 17.8536 11.3134C17.9473 11.4072 18 11.5344 18 11.667V14.777C18 15.265 17.754 15.679 17.413 16.004C17.072 16.329 16.609 16.597 16.076 16.813C15.008 17.244 13.566 17.5 12 17.5C10.433 17.5 8.992 17.244 7.924 16.813C7.391 16.598 6.926 16.329 6.587 16.004C6.247 15.679 6 15.264 6 14.778V11.667C6 11.5344 6.05268 11.4072 6.14645 11.3134C6.24021 11.2197 6.36739 11.167 6.5 11.167Z" fill="#9D9A9A"/>
<path fill-rule="evenodd" clip-rule="evenodd" d="M8.7 16.726V13H9.7V16.726H8.7ZM13.1 16.5V13.5H14.1V16.5H13.1ZM2.278 4.719C2.062 4.925 2 5.095 2 5.222C2 5.349 2.062 5.519 2.278 5.726C2.494 5.933 2.836 6.143 3.298 6.33C4.221 6.703 5.529 6.944 7 6.944C8.47 6.944 9.78 6.703 10.702 6.33C11.164 6.143 11.505 5.933 11.722 5.726C11.939 5.519 12 5.349 12 5.222C12 5.095 11.938 4.925 11.722 4.719C11.505 4.511 11.164 4.301 10.702 4.114C9.779 3.742 8.47 3.5 7 3.5C5.53 3.5 4.22 3.742 3.298 4.114C2.836 4.301 2.495 4.511 2.278 4.719ZM2.924 3.187C3.992 2.756 5.434 2.5 7 2.5C8.567 2.5 10.008 2.756 11.076 3.187C11.609 3.403 12.074 3.671 12.413 3.996C12.753 4.321 13 4.736 13 5.222C13 5.709 12.754 6.123 12.413 6.449C12.073 6.773 11.609 7.042 11.076 7.257C10.008 7.689 8.566 7.944 7 7.944C5.433 7.944 3.992 7.689 2.924 7.257C2.391 7.042 1.926 6.773 1.587 6.449C1.247 6.123 1 5.709 1 5.222C1 4.736 1.246 4.322 1.587 3.996C1.928 3.67 2.391 3.403 2.924 3.187Z" fill="#9D9A9A"/>
<path fill-rule="evenodd" clip-rule="evenodd" d="M1.5 5.16699C1.63261 5.16699 1.75979 5.21967 1.85355 5.31344C1.94732 5.40721 2 5.53438 2 5.66699V8.77699C2 8.90499 2.062 9.07499 2.278 9.28099C2.495 9.48899 2.836 9.69899 3.298 9.88599C4.221 10.258 5.529 10.5 7 10.5C8.47 10.5 9.78 10.258 10.702 9.88599C11.164 9.69899 11.505 9.48899 11.722 9.28099C11.938 9.07499 12 8.90499 12 8.77799V5.66699C12 5.53438 12.0527 5.40721 12.1464 5.31344C12.2402 5.21967 12.3674 5.16699 12.5 5.16699C12.6326 5.16699 12.7598 5.21967 12.8536 5.31344C12.9473 5.40721 13 5.53438 13 5.66699V8.77699C13 9.26499 12.754 9.67899 12.413 10.004C12.072 10.329 11.609 10.598 11.076 10.813C10.008 11.244 8.566 11.5 7 11.5C5.433 11.5 3.992 11.244 2.924 10.813C2.391 10.597 1.926 10.329 1.587 10.004C1.247 9.67999 1 9.26399 1 8.77799V5.66699C1 5.53438 1.05268 5.40721 1.14645 5.31344C1.24021 5.21967 1.36739 5.16699 1.5 5.16699Z" fill="#9D9A9A"/>
<path fill-rule="evenodd" clip-rule="evenodd" d="M3.69995 10.4998V7.11279H4.69995V10.4998H3.69995ZM8.09995 10.4998V7.49979H9.09995V10.4998H8.09995Z" fill="#9D9A9A"/>
<path d="M1.14993 1.87792C1.05353 1.78138 0.999418 1.6505 0.999512 1.51407C0.999606 1.37763 1.05389 1.24683 1.15043 1.15042C1.24697 1.05401 1.37785 0.999906 1.51429 1C1.65072 1.00009 1.78153 1.05438 1.87793 1.15092L18.8489 18.1219C18.9453 18.2183 18.9995 18.3491 18.9995 18.4854C18.9995 18.6218 18.9453 18.7525 18.8489 18.8489C18.7525 18.9453 18.6218 18.9995 18.4854 18.9995C18.3491 18.9995 18.2183 18.9453 18.1219 18.8489L1.14993 1.87792Z" fill="#9D9A9A"/>
</svg>
