<svg width="70" height="70" viewBox="0 0 70 70" fill="none" xmlns="http://www.w3.org/2000/svg">
<path d="M40.8333 6.41732C38.9471 6.03232 37.0027 5.83787 34.9999 5.83398C18.8912 5.83398 5.83325 18.8919 5.83325 35.0007C5.83325 51.1094 18.8912 64.1673 34.9999 64.1673C51.1087 64.1673 64.1666 51.1094 64.1666 35.0007C64.1627 32.9979 63.9683 31.0534 63.5833 29.1673" stroke="#F3FAF9" stroke-width="4.375" stroke-linecap="round" stroke-linejoin="round"/>
<path d="M34.9998 26.2497C31.7769 26.2497 29.1665 28.2097 29.1665 30.6247C29.1665 33.0397 31.7769 34.9997 34.9998 34.9997C38.2228 34.9997 40.8332 36.9597 40.8332 39.3747C40.8332 41.7897 38.2228 43.7497 34.9998 43.7497M34.9998 26.2497C37.5373 26.2497 39.7015 27.466 40.5007 29.1664M34.9998 26.2497V23.333M34.9998 43.7497C32.4623 43.7497 30.2982 42.5335 29.499 40.833M34.9998 43.7497V46.6664M49.5773 20.4222L61.7573 8.23638M64.1607 18.8997L63.8165 9.88721C63.8165 7.76096 62.5478 6.4368 60.2348 6.27055L51.1232 5.8418" stroke="#F3FAF9" stroke-width="4.375" stroke-linecap="round" stroke-linejoin="round"/>
</svg>
