<svg width="60" height="60" viewBox="0 0 60 60" fill="none" xmlns="http://www.w3.org/2000/svg">
<path d="M30 0.952148C13.9948 0.952148 0.952393 13.9945 0.952393 29.9998C0.952393 46.005 13.9948 59.0474 30 59.0474C46.0052 59.0474 59.0476 46.005 59.0476 29.9998C59.0476 13.9945 46.0052 0.952148 30 0.952148ZM43.8848 23.3188L27.4148 39.7888C27.0081 40.1955 26.4562 40.4279 25.8752 40.4279C25.2943 40.4279 24.7424 40.1955 24.3357 39.7888L16.1152 31.5683C15.2729 30.726 15.2729 29.3317 16.1152 28.4893C16.9576 27.6469 18.3519 27.6469 19.1943 28.4893L25.8752 35.1702L40.8057 20.2398C41.6481 19.3974 43.0424 19.3974 43.8848 20.2398C44.7272 21.0821 44.7272 22.4474 43.8848 23.3188Z" fill="#41D195"/>
</svg>
