<svg width="19" height="20" viewBox="0 0 19 20" fill="none" xmlns="http://www.w3.org/2000/svg">
<path d="M14 18C14.1333 18 14.25 17.95 14.35 17.85C14.45 17.75 14.5 17.6333 14.5 17.5V14.5C14.5 14.3667 14.45 14.25 14.35 14.15C14.25 14.05 14.1333 14 14 14C13.8667 14 13.75 14.05 13.65 14.15C13.55 14.25 13.5 14.3667 13.5 14.5V17.5C13.5 17.6333 13.55 17.75 13.65 17.85C13.75 17.95 13.8667 18 14 18ZM14 13C14.1333 13 14.25 12.95 14.35 12.85C14.45 12.75 14.5 12.6333 14.5 12.5C14.5 12.3667 14.45 12.25 14.35 12.15C14.25 12.05 14.1333 12 14 12C13.8667 12 13.75 12.05 13.65 12.15C13.55 12.25 13.5 12.3667 13.5 12.5C13.5 12.6333 13.55 12.75 13.65 12.85C13.75 12.95 13.8667 13 14 13ZM5 12H7.5C7.78333 12 8.021 11.904 8.213 11.712C8.405 11.52 8.50067 11.2827 8.5 11C8.49933 10.7173 8.40333 10.48 8.212 10.288C8.02067 10.096 7.78333 10 7.5 10H5C4.71667 10 4.47933 10.096 4.288 10.288C4.09667 10.48 4.00067 10.7173 4 11C3.99933 11.2827 4.09533 11.5203 4.288 11.713C4.48067 11.9057 4.718 12.0013 5 12ZM5 16H6C6.28333 16 6.521 15.904 6.713 15.712C6.905 15.52 7.00067 15.2827 7 15C6.99933 14.7173 6.90333 14.48 6.712 14.288C6.52067 14.096 6.28333 14 6 14H5C4.71667 14 4.47933 14.096 4.288 14.288C4.09667 14.48 4.00067 14.7173 4 15C3.99933 15.2827 4.09533 15.5203 4.288 15.713C4.48067 15.9057 4.718 16.0013 5 16ZM2 20C1.45 20 0.979333 19.8043 0.588 19.413C0.196667 19.0217 0.000666667 18.5507 0 18V2C0 1.45 0.196 0.979333 0.588 0.588C0.98 0.196667 1.45067 0.000666667 2 0H9.175C9.44167 0 9.696 0.0500001 9.938 0.15C10.18 0.25 10.3923 0.391667 10.575 0.575L15.425 5.425C15.6083 5.60833 15.75 5.821 15.85 6.063C15.95 6.305 16 6.559 16 6.825V7.15C16 7.43333 15.904 7.67067 15.712 7.862C15.52 8.05333 15.2827 8.14933 15 8.15C14.7173 8.15067 14.48 8.05467 14.288 7.862C14.096 7.66933 14 7.432 14 7.15V7H10C9.71667 7 9.47933 6.904 9.288 6.712C9.09667 6.52 9.00067 6.28267 9 6V2H2V18H7.525C7.80833 18 8.046 18.096 8.238 18.288C8.43 18.48 8.52567 18.7173 8.525 19C8.52433 19.2827 8.42833 19.5203 8.237 19.713C8.04567 19.9057 7.80833 20.0013 7.525 20H2ZM14 10C15.3833 10 16.5627 10.4877 17.538 11.463C18.5133 12.4383 19.0007 13.6173 19 15C18.9993 16.3827 18.5117 17.562 17.537 18.538C16.5623 19.514 15.3833 20.0013 14 20C12.6167 19.9987 11.4377 19.511 10.463 18.537C9.48833 17.563 9.00067 16.384 9 15C8.99933 13.616 9.487 12.437 10.463 11.463C11.439 10.489 12.618 10.0013 14 10Z" fill="#2C7075"/>
</svg>
