<svg width="25" height="25" viewBox="0 0 25 25" fill="none" xmlns="http://www.w3.org/2000/svg">
<path fill-rule="evenodd" clip-rule="evenodd" d="M10.1093 0H13.7279C15.8651 0 17.5581 1.70299e-07 18.8826 0.218572C20.2453 0.444286 21.3488 0.918571 22.2198 1.98714C23.2942 3.30857 23.6372 5.07714 23.7616 7.37286C24.4326 7.73429 24.9395 8.50143 24.9942 9.47286C25 9.56 25 9.65286 25 9.73857V15.2614C25 15.3471 25 15.44 24.9953 15.5257C24.9395 16.4971 24.4326 17.2657 23.7616 17.6286C23.6372 19.9229 23.2942 21.6914 22.2198 23.0129C21.3488 24.0814 20.2453 24.5557 18.8826 24.7814C17.557 25 15.8651 25 13.7279 25H10.1093C7.97209 25 6.27907 25 4.95465 24.7814C3.59186 24.5557 2.48837 24.0814 1.61744 23.0129C0.747674 21.9429 0.361628 20.5871 0.177907 18.9129C0 17.2843 0 15.2057 0 12.58V12.42C0 9.79429 0 7.71429 0.177907 6.08714C0.361628 4.41286 0.747674 3.05714 1.61744 1.98714C2.48837 0.918571 3.59186 0.444286 4.95465 0.218572C6.28023 1.70299e-07 7.97209 0 10.1093 0ZM21.9977 17.8571H19.7442C17.25 17.8571 15.1151 15.5314 15.1151 12.5C15.1151 9.46857 17.25 7.14286 19.743 7.14286H21.9965C21.864 5.22714 21.5651 4.21429 20.9849 3.50286C20.493 2.89857 19.8186 2.53571 18.6488 2.34286C17.4547 2.14571 15.8791 2.14286 13.6616 2.14286H10.1733C7.95581 2.14286 6.3814 2.14571 5.18488 2.34286C4.01628 2.53571 3.34186 2.89857 2.85 3.50286C2.35814 4.10714 2.06395 4.93571 1.90698 6.37143C1.74651 7.84 1.74419 9.77429 1.74419 12.4986C1.74419 15.2229 1.74651 17.1586 1.90698 18.6271C2.06395 20.0629 2.3593 20.8914 2.85116 21.4957C3.34302 22.1 4.01744 22.4629 5.18721 22.6557C6.38256 22.8529 7.95698 22.8557 10.1744 22.8557H13.6628C15.8802 22.8557 17.4558 22.8529 18.6512 22.6557C19.8198 22.4629 20.4942 22.1 20.986 21.4957C21.5663 20.7843 21.8651 19.7729 21.9977 17.8557M4.65116 6.78571C4.65116 6.50155 4.74304 6.22903 4.90659 6.0281C5.07014 5.82717 5.29196 5.71429 5.52326 5.71429H10.1744C10.4057 5.71429 10.6275 5.82717 10.7911 6.0281C10.9546 6.22903 11.0465 6.50155 11.0465 6.78571C11.0465 7.06987 10.9546 7.3424 10.7911 7.54333C10.6275 7.74426 10.4057 7.85714 10.1744 7.85714H5.52326C5.29196 7.85714 5.07014 7.74426 4.90659 7.54333C4.74304 7.3424 4.65116 7.06987 4.65116 6.78571ZM22.8767 9.28571H19.7442C18.0884 9.28571 16.8593 10.7986 16.8593 12.5C16.8593 14.2014 18.0884 15.7143 19.743 15.7143H22.9035C23.143 15.6957 23.2465 15.4971 23.2547 15.3771V9.62286C23.2465 9.50286 23.143 9.30429 22.9035 9.28714L22.8767 9.28571Z" fill="white"/>
</svg>
