<svg width="150" height="150" viewBox="0 0 150 150" fill="none" xmlns="http://www.w3.org/2000/svg">
<g clip-path="url(#clip0_3207_2596)">
<path d="M147.475 83.9375H72.2625C68.2323 83.6269 64.2419 84.916 61.155 87.5256C58.0681 90.1352 56.1331 93.8555 55.7688 97.8813L55.7625 97.9375C55.9439 99.9577 56.5217 101.922 57.4627 103.719C58.4038 105.516 59.6897 107.11 61.247 108.409C62.8043 109.709 64.6025 110.689 66.5387 111.293C68.4749 111.897 70.5112 112.114 72.5312 111.931L72.475 111.938H147.475C147.947 111.981 148.423 111.93 148.875 111.787C149.327 111.645 149.746 111.413 150.108 111.106C150.469 110.8 150.766 110.424 150.98 110.001C151.195 109.578 151.322 109.117 151.356 108.644V87.2438C151.234 86.3291 150.784 85.49 150.089 84.882C149.395 84.274 148.504 83.9384 147.581 83.9375H147.469H147.475ZM72.2625 106.675C70.4948 106.675 68.7669 106.151 67.2971 105.169C65.8273 104.187 64.6818 102.791 64.0053 101.158C63.3289 99.5246 63.1519 97.7276 63.4967 95.9939C63.8416 94.2602 64.6928 92.6677 65.9427 91.4177C67.1927 90.1678 68.7852 89.3166 70.5189 88.9717C72.2526 88.6269 74.0496 88.8039 75.6827 89.4803C77.3158 90.1568 78.7117 91.3023 79.6938 92.7721C80.6758 94.2419 81.2 95.9698 81.2 97.7375V97.7625C81.2 102.688 77.2062 106.675 72.2875 106.675H72.2625ZM20.5938 0V40.025H29.1438V22.925C30.0063 23.1375 31.0062 23.275 32.0312 23.3125H32.0563C35.1462 23.3059 38.1079 22.0759 40.2934 19.8916C42.4789 17.7072 43.7105 14.7462 43.7187 11.6563C43.7038 10.6411 43.5653 9.63161 43.3062 8.65L43.325 8.74375H90.15C89.9234 9.69064 89.7935 10.6581 89.7625 11.6313V11.6563C89.7691 14.7462 90.9991 17.7079 93.1834 19.8934C95.3678 22.0789 98.3288 23.3105 101.419 23.3188C102.469 23.2813 103.475 23.1438 104.437 22.9063L104.338 22.925V40.025H113.094V0H20.5938ZM116.775 35.1625H127.656C126.839 32.7959 125.41 30.6877 123.514 29.0521C121.618 27.4165 119.323 26.3118 116.863 25.85L116.775 25.8375V35.1625Z" fill="#2C7075"/>
<path d="M71.6938 79.275H146.306V56.5438C145.987 53.1718 144.356 50.0603 141.764 47.8799C139.172 45.6996 135.827 44.6249 132.45 44.8875H132.494H13.9938C13.8918 44.7788 13.7544 44.7101 13.6063 44.6938C12.783 44.3099 12.0783 43.7116 11.5658 42.9616C11.0534 42.2117 10.7522 41.3377 10.6938 40.4313V40.4188C10.7967 39.2957 11.2385 38.2305 11.9607 37.3643C12.6829 36.4982 13.6513 35.872 14.7375 35.5688L14.775 35.5625V25.6562C6.60625 26.0438 0 37.7 0 52.275V138.35C0.322445 141.718 1.9532 144.825 4.54181 147.003C7.13043 149.182 10.4703 150.258 13.8438 150H13.8H132.3C135.659 150.248 138.982 149.173 141.559 147.004C144.136 144.836 145.764 141.746 146.094 138.394L146.1 138.344V115.613H71.9C59.8563 115.613 50.1375 107.45 50.1375 97.5438C50.1375 87.4438 59.85 79.2813 71.7 79.2813L71.6938 79.275Z" fill="#2C7075"/>
</g>
<defs>
<clipPath id="clip0_3207_2596">
<rect width="150" height="150" fill="white"/>
</clipPath>
</defs>
</svg>
