<svg width="50" height="71" viewBox="0 0 50 71" fill="none" xmlns="http://www.w3.org/2000/svg">
<path fill-rule="evenodd" clip-rule="evenodd" d="M45.8275 24.9837H33.1066L41.3263 5.80455C41.5977 5.17124 41.7078 4.48045 41.6466 3.79411C41.5854 3.10778 41.3548 2.44737 40.9756 1.87208C40.5963 1.29679 40.0802 0.824615 39.4736 0.497883C38.8669 0.17115 38.1886 7.77446e-05 37.4996 1.6476e-06H16.6798C15.8643 -0.000723628 15.0666 0.238016 14.3856 0.686595C13.7046 1.13517 13.1703 1.77385 12.849 2.52336L0.357089 31.671C0.0854623 32.3047 -0.0245872 32.9958 0.0368171 33.6825C0.0982214 34.3692 0.329158 35.0298 0.708901 35.6052C1.08864 36.1806 1.60531 36.6527 2.21253 36.9792C2.81975 37.3056 3.49852 37.4762 4.18793 37.4756H11.4082L0.323778 65.0701C-1.3418 69.2132 3.80068 72.7151 7.0444 69.6504L27.9641 49.905L48.5341 32.3123C51.4738 29.7973 49.6958 24.9837 45.8275 24.9837ZM22.9674 27.5071C22.696 28.1401 22.5859 28.8305 22.6469 29.5165C22.7079 30.2025 22.9381 30.8626 23.3169 31.4378C23.6957 32.013 24.2112 32.4852 24.8173 32.8123C25.4234 33.1393 26.1012 33.3109 26.7899 33.3116H34.5515L22.3927 43.7132L15.1141 50.5837L21.4309 34.8648C21.6848 34.2331 21.78 33.5488 21.7081 32.8719C21.6362 32.1949 21.3994 31.5458 21.0184 30.9816C20.6375 30.4174 20.124 29.9552 19.523 29.6354C18.9219 29.3157 18.2517 29.1482 17.5709 29.1477H10.5046L19.4238 8.32791H31.1829L22.9674 27.5071Z" fill="#F3FAF9"/>
</svg>
