<svg width="30" height="30" viewBox="7 8 16 16" fill="none" xmlns="http://www.w3.org/2000/svg">
    <path
        d="M21.9132 20.0912H21.0444C20.4694 20.0912 19.9288 19.8181 19.5907 19.3574L16.0257 14.5024C15.5675 13.9068 14.7613 13.1224 14.7613 11.9599C14.7613 10.8631 15.6613 9.90869 16.9125 9.90869C18.1313 9.90869 18.9957 10.8624 18.9957 11.9599C18.9957 13.1224 18.045 14.1162 16.2888 14.4456C14.6982 14.7443 13.5919 15.5031 13.2325 16.7174"
        stroke="#ffffff" stroke-width="1.625" stroke-linecap="round" stroke-linejoin="round" />
    <path
        d="M8.08691 16.7188H13.2257V15.8913C13.2257 14.4851 12.0757 13.3457 10.6563 13.3457C9.23754 13.3457 8.08691 14.4851 8.08691 15.8907V17.5457C8.08691 18.952 9.23691 20.0907 10.6557 20.0907C11.6119 20.0907 12.4463 19.5732 12.8888 18.8063L13.3594 18.8076C13.7419 19.5888 14.5607 20.0907 15.8138 20.0907C18.1857 20.0907 19.5819 17.8626 21.6438 15.1245"
        stroke="#ffffff" stroke-width="1.625" stroke-linecap="round" stroke-linejoin="round" />
    <path
        d="M24.0625 3.4375H5.9375C4.55679 3.4375 3.4375 4.55679 3.4375 5.9375V24.0625C3.4375 25.4432 4.55679 26.5625 5.9375 26.5625H24.0625C25.4432 26.5625 26.5625 25.4432 26.5625 24.0625V5.9375C26.5625 4.55679 25.4432 3.4375 24.0625 3.4375Z"
        stroke="none" stroke-width="0.625" stroke-linecap="round" stroke-linejoin="round" />
</svg>