<svg width="74" height="74" viewBox="0 0 74 74" fill="none" xmlns="http://www.w3.org/2000/svg">
<path d="M6.85 33.3333C7.50087 27.5357 9.82618 22.0532 13.5419 17.5556C17.2576 13.0579 22.2028 9.73982 27.7733 8.00662C23.2396 15.7195 20.6081 24.4013 20.0967 33.3333H6.85ZM33.3067 0.153288C14.6333 1.84662 0 17.55 0 36.6666C0 55.7833 14.6333 71.4866 33.3067 73.1833L33.3333 73.2166L34.75 73.2833C35.3884 73.3141 36.0275 73.3308 36.6667 73.3333C37.3059 73.3333 37.945 73.3167 38.5833 73.2833L40 73.2166L40.0267 73.1833C58.7 71.48 73.3333 55.7833 73.3333 36.6666C73.3333 17.55 58.7 1.84662 40.0267 0.153288L40 0.119955L38.58 0.0499546C37.3053 -0.0166515 36.028 -0.0166515 34.7533 0.0499546L33.3333 0.116621L33.3067 0.153288ZM36.6733 6.66662C42.4966 14.4021 45.9319 23.6711 46.5567 33.3333H26.7767C27.4023 23.6707 30.8388 14.4017 36.6633 6.66662H36.6667M20.0933 40C20.6267 49.2 23.36 57.8166 27.77 65.3266C22.2 63.5929 17.2556 60.2745 13.5405 55.7769C9.82543 51.2793 7.50061 45.7971 6.85 40H20.0933ZM36.66 66.6666C30.8355 58.9315 27.399 49.6625 26.7733 40H46.5533C45.9276 49.6625 42.4912 58.9315 36.6667 66.6666H36.66ZM45.56 65.3266C50.0926 57.6135 52.7229 48.9317 53.2333 40H66.48C65.8294 45.7971 63.5046 51.2793 59.7895 55.7769C56.0744 60.2745 51.13 63.5929 45.56 65.3266ZM53.2333 33.3333C52.7 24.1333 49.9667 15.5166 45.5567 8.00662C51.1279 9.73928 56.0738 13.0571 59.7901 17.5548C63.5064 22.0525 65.8322 27.5353 66.4833 33.3333H53.2333Z" fill="white"/>
</svg>
