<svg width="74" height="74" viewBox="0 0 74 74" fill="none" xmlns="http://www.w3.org/2000/svg">
<path d="M29.9907 35.3255V27.6659M43.9907 35.3255V27.6659M12.9978 4.29836H12.9636C9.85283 4.9895 7.07094 6.72117 5.07754 9.20726C3.08414 11.6934 1.9985 14.7851 2 17.9717V20.7406C2 21.9783 2.49167 23.1652 3.36684 24.0404C4.24201 24.9156 5.42899 25.4073 6.66667 25.4073H18.3333C19.571 25.4073 20.758 24.9156 21.6332 24.0404C22.5083 23.1652 23 21.9783 23 20.7406C23 19.5029 23.4917 18.3159 24.3668 17.4408C25.242 16.5656 26.429 16.0739 27.6667 16.0739H46.3333C47.571 16.0739 48.758 16.5656 49.6332 17.4408C50.5083 18.3159 51 19.5029 51 20.7406C51 21.9783 51.4917 23.1652 52.3668 24.0404C53.242 24.9156 54.429 25.4073 55.6667 25.4073H67.3333C68.571 25.4073 69.758 24.9156 70.6332 24.0404C71.5083 23.1652 72 21.9783 72 20.7406V17.9717C72.0001 14.7862 70.9138 11.6959 68.9205 9.21106C66.9272 6.72624 64.1461 4.99549 61.0364 4.30459H61.0022C45.1483 1.2339 28.8525 1.23179 12.9978 4.29836ZM37.9396 34.6659H36.0573C29.2329 34.6663 22.6435 37.1591 17.5275 41.6758C12.4116 46.1925 9.12135 52.4221 8.27511 59.1939L7.98267 61.5086C7.81856 62.8218 7.93561 64.1549 8.32604 65.4194C8.71647 66.6839 9.37135 67.8509 10.2472 68.843C11.1231 69.8351 12.2 70.6296 13.4064 71.1738C14.6127 71.7179 15.921 71.9993 17.2444 71.9993H56.7556C58.0793 71.9986 59.3878 71.7164 60.5942 71.1713C61.8005 70.6262 62.8771 69.8307 63.7525 68.8376C64.6279 67.8446 65.282 66.6767 65.6714 65.4115C66.0608 64.1462 66.1766 62.8127 66.0111 61.4993L65.7218 59.1846C64.8734 52.4145 61.5823 46.1871 56.4665 41.6723C51.3508 37.1575 44.7626 34.666 37.9396 34.6659Z" stroke="white" stroke-width="3.88" stroke-linecap="round" stroke-linejoin="round"/>
<path d="M27.6573 53.3333C27.6573 55.8087 28.6407 58.1827 30.391 59.933C32.1414 61.6833 34.5153 62.6667 36.9907 62.6667C39.466 62.6667 41.84 61.6833 43.5903 59.933C45.3407 58.1827 46.324 55.8087 46.324 53.3333C46.324 50.858 45.3407 48.484 43.5903 46.7337C41.84 44.9833 39.466 44 36.9907 44C34.5153 44 32.1414 44.9833 30.391 46.7337C28.6407 48.484 27.6573 50.858 27.6573 53.3333Z" stroke="white" stroke-width="1.875" stroke-linecap="round" stroke-linejoin="round"/>
</svg>
