<svg xmlns="http://www.w3.org/2000/svg" xmlns:xlink="http://www.w3.org/1999/xlink" width="500" zoomAndPan="magnify" viewBox="0 0 375 374.999991" height="500" preserveAspectRatio="xMidYMid meet" version="1.2"><defs><clipPath id="4fecd43b1c"><path d="M 126.28125 122.292969 L 248.53125 122.292969 L 248.53125 272 L 126.28125 272 Z M 126.28125 122.292969 "/></clipPath></defs><g id="47a6ba3244"><g clip-rule="nonzero" clip-path="url(#4fecd43b1c)"><path style=" stroke:none;fill-rule:evenodd;fill:#2c7075;fill-opacity:1;" d="M 198.871094 228.691406 C 199.03125 245.058594 185.664062 258.507812 169.300781 258.507812 C 153.015625 258.507812 139.730469 245.300781 139.730469 228.9375 L 126.28125 228.9375 C 126.28125 252.753906 145.5625 271.953125 169.300781 271.953125 C 192.957031 271.953125 212.316406 252.835938 212.316406 228.9375 L 212.316406 165.582031 L 198.871094 165.582031 C 198.871094 197.746094 198.871094 194.261719 198.871094 228.691406 Z M 175.941406 228.691406 C 175.941406 207.628906 175.941406 186.648438 175.941406 165.582031 C 175.78125 149.21875 189.148438 135.769531 205.511719 135.769531 C 221.796875 135.769531 235.082031 148.976562 235.082031 165.339844 C 235.082031 174.574219 230.871094 182.839844 224.226562 188.265625 L 224.226562 204.066406 C 239.050781 196.9375 248.53125 181.867188 248.53125 165.339844 C 248.53125 141.601562 229.25 122.402344 205.511719 122.402344 C 181.9375 122.402344 162.574219 141.523438 162.574219 165.421875 L 162.574219 228.691406 C 162.574219 228.691406 175.941406 228.691406 175.941406 228.691406 Z M 175.941406 228.691406 "/></g></g></svg>