<svg width="80" height="80" viewBox="0 0 80 80" fill="none" xmlns="http://www.w3.org/2000/svg">
<path d="M33.3333 72.6673C35.4889 73.1073 37.7111 73.3295 40 73.334C58.41 73.334 73.3333 58.4106 73.3333 40.0006C73.3333 21.5906 58.41 6.66731 40 6.66731C21.59 6.66731 6.66664 21.5906 6.66664 40.0006C6.67109 42.2895 6.89331 44.5118 7.33331 46.6673" stroke="#F3FAF9" stroke-width="4.375" stroke-linecap="round" stroke-linejoin="round"/>
<path d="M40 50.0009C43.6833 50.0009 46.6666 47.7609 46.6666 45.0009C46.6666 42.2409 43.6833 40.0009 40 40.0009C36.3166 40.0009 33.3333 37.7609 33.3333 35.0009C33.3333 32.2409 36.3166 30.0009 40 30.0009M40 50.0009C37.1 50.0009 34.6266 48.6109 33.7133 46.6676M40 50.0009V53.3342M40 30.0009C42.9 30.0009 45.3733 31.3909 46.2866 33.3342M40 30.0009V26.6676M23.34 56.6609L9.41996 70.5876M6.6733 58.4009L7.06663 68.7009C7.06663 71.1309 8.51663 72.6442 11.16 72.8342L21.5733 73.3242" stroke="#F3FAF9" stroke-width="4.375" stroke-linecap="round" stroke-linejoin="round"/>
</svg>
