<svg width="80" height="80" viewBox="0 0 80 80" fill="none" xmlns="http://www.w3.org/2000/svg">
<path d="M46.6667 7.33268C44.5111 6.89268 42.2889 6.67046 40 6.66602C21.59 6.66602 6.66669 21.5894 6.66669 39.9994C6.66669 58.4094 21.59 73.3327 40 73.3327C58.41 73.3327 73.3334 58.4094 73.3334 39.9994C73.3289 37.7105 73.1067 35.4882 72.6667 33.3327" stroke="#F3FAF9" stroke-width="4.375" stroke-linecap="round" stroke-linejoin="round"/>
<path d="M40 29.9991C36.3167 29.9991 33.3334 32.2391 33.3334 34.9991C33.3334 37.7591 36.3167 39.9991 40 39.9991C43.6834 39.9991 46.6667 42.2391 46.6667 44.9991C46.6667 47.7591 43.6834 49.9991 40 49.9991M40 29.9991C42.9 29.9991 45.3734 31.3891 46.2867 33.3324M40 29.9991V26.6658M40 49.9991C37.1 49.9991 34.6267 48.6091 33.7134 46.6658M40 49.9991V53.3324M56.66 23.3391L70.58 9.41245M73.3267 21.5991L72.9334 11.2991C72.9334 8.86912 71.4834 7.35578 68.84 7.16578L58.4267 6.67578" stroke="#F3FAF9" stroke-width="4.375" stroke-linecap="round" stroke-linejoin="round"/>
</svg>
