<svg width="70" height="65" viewBox="0 0 70 65" fill="none" xmlns="http://www.w3.org/2000/svg">
<path d="M35 0L69.9922 13.9286V18.5714H65.3266C65.3266 19.2001 65.0775 19.7442 64.5793 20.2037C64.0812 20.6631 63.4919 20.8929 62.8115 20.8929H7.18845C6.50804 20.8929 5.91876 20.6631 5.42061 20.2037C4.92246 19.7442 4.67338 19.2001 4.67338 18.5714H0.00775146V13.9286L35 0ZM9.33901 23.2143H18.6703V51.0714H23.3359V23.2143H32.6672V51.0714H37.3328V23.2143H46.664V51.0714H51.3297V23.2143H60.6609V51.0714H62.8115C63.4919 51.0714 64.0812 51.3012 64.5793 51.7606C65.0775 52.2201 65.3266 52.7641 65.3266 53.3929V55.7143H4.67338V53.3929C4.67338 52.7641 4.92246 52.2201 5.42061 51.7606C5.91876 51.3012 6.50804 51.0714 7.18845 51.0714H9.33901V23.2143ZM67.4771 58.0357C68.1575 58.0357 68.7468 58.2654 69.245 58.7249C69.7431 59.1843 69.9922 59.7284 69.9922 60.3571V65H0.00775146V60.3571C0.00775146 59.7284 0.256828 59.1843 0.754981 58.7249C1.25313 58.2654 1.84241 58.0357 2.52282 58.0357H67.4771Z" fill="white"/>
</svg>
