<svg width="30" height="30" viewBox="0 0 30 30" fill="none" xmlns="http://www.w3.org/2000/svg">
    <path fill-rule="evenodd" clip-rule="evenodd"
        d="M15 28.75C22.5937 28.75 28.75 22.5938 28.75 15C28.75 9.36 25.355 4.5125 20.4962 2.3925C19.3505 2.84917 18.355 3.6166 17.6218 4.6084C16.8886 5.6002 16.4469 6.77698 16.3462 8.00625C18.0088 8.32024 19.5103 9.20296 20.5932 10.503C21.6761 11.803 22.2729 13.4393 22.2813 15.1313V15.1638C22.2813 17.0949 21.5141 18.9469 20.1486 20.3124C18.7831 21.6779 16.9311 22.445 15 22.445C13.0689 22.445 11.2169 21.6779 9.85138 20.3124C8.48588 18.9469 7.71875 17.0949 7.71875 15.1638C7.71875 8.3475 13.875 3.12125 20.4962 2.3925C18.7626 1.63792 16.8907 1.24898 15 1.25C7.40625 1.25 1.25 7.40625 1.25 15C1.25 22.5938 7.40625 28.75 15 28.75Z"
        fill="#ffffff" />
</svg>