<svg viewBox="0 0 30 30" fill="none" xmlns="http://www.w3.org/2000/svg">
    <rect width="30" height="30" fill="white" />
    <path fill-rule="evenodd" clip-rule="evenodd"
        d="M6.25 1.25C4.92392 1.25 3.65215 1.77678 2.71447 2.71447C1.77678 3.65215 1.25 4.92392 1.25 6.25V23.75C1.25 25.0761 1.77678 26.3479 2.71447 27.2855C3.65215 28.2232 4.92392 28.75 6.25 28.75H23.75C25.0761 28.75 26.3479 28.2232 27.2855 27.2855C28.2232 26.3479 28.75 25.0761 28.75 23.75V6.25C28.75 4.92392 28.2232 3.65215 27.2855 2.71447C26.3479 1.77678 25.0761 1.25 23.75 1.25H6.25ZM25 15C24.9996 17.1531 24.3042 19.2486 23.0173 20.9749C21.7304 22.7011 19.9207 23.9659 17.8574 24.5811C15.794 25.1964 13.5872 25.1292 11.565 24.3896C9.54291 23.65 7.8135 22.2775 6.63398 20.4762C5.45447 18.6748 4.88785 16.5409 5.0184 14.3917C5.14894 12.2426 5.96967 10.1929 7.35853 8.54761C8.7474 6.9023 10.6302 5.7492 12.727 5.25979C14.8238 4.77038 17.0225 4.9708 18.9962 5.83125C14.1812 6.36125 9.70375 10.1625 9.70375 15.1188C9.70375 16.5234 10.2617 17.8705 11.255 18.8638C12.2482 19.857 13.5953 20.415 15 20.415C16.4047 20.415 17.7518 19.857 18.745 18.8638C19.7383 17.8705 20.2962 16.5234 20.2962 15.1188V15.095C20.29 13.8644 19.8557 12.6744 19.068 11.729C18.2802 10.7836 17.188 10.1419 15.9787 9.91375C16.0514 9.01952 16.3725 8.16339 16.9059 7.442C17.4393 6.72062 18.1638 6.16271 18.9975 5.83125C20.7819 6.60943 22.3003 7.89149 23.3665 9.52017C24.4328 11.1489 25.0005 13.0533 25 15Z"
        fill="#E60000" />
</svg>