<svg width="80" height="80" viewBox="0 0 80 80" fill="none" xmlns="http://www.w3.org/2000/svg">
<path fill-rule="evenodd" clip-rule="evenodd" d="M4.44444 13.3333V0H0V80H4.44444V35.5556H11.1111V40H42.2222V32.5933H48.8889C50.0676 32.5933 51.1981 33.0616 52.0316 33.8951C52.8651 34.7286 53.3333 35.859 53.3333 37.0378V37.7778H48.8889V55.5556H80V37.7778H75.5556V35.5556C75.5556 23.2822 65.6067 13.3333 53.3333 13.3333H42.2222V8.88889H28.8889V4.44444H44.4444C45.0338 4.44444 45.599 4.21032 46.0158 3.79357C46.4325 3.37682 46.6667 2.81159 46.6667 2.22222C46.6667 1.63285 46.4325 1.06762 46.0158 0.650874C45.599 0.234127 45.0338 0 44.4444 0H8.88889C8.29952 0 7.73429 0.234127 7.31754 0.650874C6.90079 1.06762 6.66667 1.63285 6.66667 2.22222C6.66667 2.81159 6.90079 3.37682 7.31754 3.79357C7.73429 4.21032 8.29952 4.44444 8.88889 4.44444H24.4444V8.88889H11.1111V13.3333H4.44444ZM71.1111 35.5556C71.1111 30.8406 69.2381 26.3187 65.9041 22.9848C62.5701 19.6508 58.0483 17.7778 53.3333 17.7778H42.2222V28.1489H48.8889C51.2464 28.1489 53.5073 29.0854 55.1743 30.7524C56.8413 32.4194 57.7778 34.6803 57.7778 37.0378V37.7778H71.1111V35.5556ZM75.5556 42.2222H53.3333V51.1111H75.5556V42.2222ZM37.7778 13.3333H15.5556V35.5556H37.7778V13.3333ZM11.1111 31.1111H4.44444V17.7778H11.1111V31.1111Z" fill="white"/>
<path fill-rule="evenodd" clip-rule="evenodd" d="M65.5556 79.9996C69.8512 79.9996 73.3334 76.3818 73.3334 71.9196C73.3334 64.8485 65.5556 57.7773 65.5556 57.7773C65.5556 57.7773 57.7778 64.8485 57.7778 71.9196C57.7778 76.3818 61.2601 79.9996 65.5556 79.9996ZM65.5556 75.5551C67.2378 75.5551 68.8889 74.0885 68.8889 71.9196C68.8889 69.8485 67.6623 67.2818 65.8601 64.824L65.5556 64.4173C65.4519 64.5507 65.3504 64.6862 65.2512 64.824C63.4512 67.2796 62.2223 69.8462 62.2223 71.9196C62.2223 74.0885 63.8734 75.5551 65.5556 75.5551Z" fill="white"/>
</svg>
