<svg width="30" height="30" viewBox="3 5 20 20" fill="none" xmlns="http://www.w3.org/2000/svg">
    <path
        d="M15 28.4375C22.4213 28.4375 28.4375 22.4213 28.4375 15C28.4375 7.57867 22.4213 1.5625 15 1.5625C7.57867 1.5625 1.5625 7.57867 1.5625 15C1.5625 22.4213 7.57867 28.4375 15 28.4375Z"
        stroke="none" stroke-width="0.625" stroke-linecap="round" stroke-linejoin="round" />
    <path
        d="M25.0125 17.1919C25.0125 17.1919 25.0125 18.125 23.035 18.125H17.6875C17.6875 18.125 15.805 18.1406 15.805 15.9106V13.68C15.805 13.68 15.7894 11.8769 17.4662 11.8769H23.6512C23.6512 11.8769 25.2325 11.7662 25.2325 13.2531L25.2488 14.9906H15.8219M9.48438 11.875V16.6875C9.48438 17.0687 9.33292 17.4344 9.06334 17.704C8.79376 17.9735 8.42812 18.125 8.04688 18.125H6.1875C5.80625 18.125 5.44062 17.9735 5.17103 17.704C4.90145 17.4344 4.75 17.0687 4.75 16.6875V11.875"
        stroke="#ffffff" stroke-width="1.625" stroke-linecap="round" stroke-linejoin="round" />
    <path
        d="M14.2187 11.875V16.6875C14.2187 17.0687 14.0673 17.4344 13.7977 17.704C13.5281 17.9735 13.1625 18.125 12.7813 18.125H10.9219C10.5406 18.125 10.175 17.9735 9.90541 17.704C9.63583 17.4344 9.48438 17.0687 9.48438 16.6875V11.875"
        stroke="#ffffff" stroke-width="1.625" stroke-linecap="round" stroke-linejoin="round" />
</svg>